<svg width="32" height="32" viewBox="0 0 32 32" fill="none" xmlns="http://www.w3.org/2000/svg">
<path d="M14.26 11.916V13.752H12.916V15.996H14.26V22.6667H17.0227V15.996H18.876C18.876 15.996 19.0507 14.92 19.1347 13.7427H17.0333V12.2094C17.0333 11.9787 17.3347 11.6707 17.6333 11.6707H19.1373V9.33337H17.0907C14.192 9.33337 14.26 11.58 14.26 11.916Z" fill="black"/>
<path d="M7.99999 5.33329C7.29275 5.33329 6.61447 5.61424 6.11437 6.11434C5.61427 6.61444 5.33332 7.29272 5.33332 7.99996V24C5.33332 24.7072 5.61427 25.3855 6.11437 25.8856C6.61447 26.3857 7.29275 26.6666 7.99999 26.6666H24C24.7072 26.6666 25.3855 26.3857 25.8856 25.8856C26.3857 25.3855 26.6667 24.7072 26.6667 24V7.99996C26.6667 7.29272 26.3857 6.61444 25.8856 6.11434C25.3855 5.61424 24.7072 5.33329 24 5.33329H7.99999ZM7.99999 2.66663H24C25.4145 2.66663 26.771 3.22853 27.7712 4.22872C28.7714 5.22892 29.3333 6.58547 29.3333 7.99996V24C29.3333 25.4144 28.7714 26.771 27.7712 27.7712C26.771 28.7714 25.4145 29.3333 24 29.3333H7.99999C6.5855 29.3333 5.22895 28.7714 4.22875 27.7712C3.22856 26.771 2.66666 25.4144 2.66666 24V7.99996C2.66666 6.58547 3.22856 5.22892 4.22875 4.22872C5.22895 3.22853 6.5855 2.66663 7.99999 2.66663Z" fill="black"/>
</svg>
