<svg width="28" height="28" viewBox="0 0 28 28" fill="none" xmlns="http://www.w3.org/2000/svg">
<path fill-rule="evenodd" clip-rule="evenodd" d="M14 0.666626C10.3787 0.666626 9.92532 0.682626 8.50266 0.746626C7.08399 0.811959 6.11466 1.03729 5.26666 1.36663C4.37664 1.70109 3.57033 2.22573 2.90399 2.90396C2.2258 3.57032 1.70115 4.37663 1.36666 5.26663C1.03732 6.11463 0.81199 7.08396 0.746656 8.50263C0.681323 9.92529 0.666656 10.3786 0.666656 14C0.666656 17.6213 0.681323 18.0746 0.746656 19.4973C0.81199 20.916 1.03732 21.8853 1.36666 22.7333C1.70119 23.6233 2.22583 24.4296 2.90399 25.096C3.57038 25.7741 4.37668 26.2988 5.26666 26.6333C6.11466 26.9626 7.08399 27.188 8.50266 27.2533C9.92532 27.3173 10.3787 27.3333 14 27.3333C17.6213 27.3333 18.0747 27.3173 19.4973 27.2533C20.916 27.188 21.8853 26.9626 22.7333 26.6333C23.6233 26.2988 24.4296 25.7742 25.096 25.096C25.7742 24.4296 26.2988 23.6233 26.6333 22.7333C26.9627 21.8853 27.188 20.916 27.2533 19.4973C27.3173 18.0746 27.3333 17.6213 27.3333 14C27.3333 10.3786 27.3173 9.92529 27.2533 8.50263C27.188 7.08396 26.9627 6.11463 26.6333 5.26663C26.2988 4.37663 25.7742 3.57032 25.096 2.90396C24.4297 2.22573 23.6233 1.70109 22.7333 1.36663C21.8853 1.03729 20.916 0.811959 19.4973 0.746626C18.0747 0.682626 17.6213 0.666626 14 0.666626ZM14 3.06929C17.56 3.06929 17.9813 3.08263 19.3867 3.14663C20.688 3.20663 21.3933 3.42263 21.864 3.60529C22.4853 3.84796 22.9307 4.13729 23.3973 4.60263C23.864 5.06929 24.152 5.51463 24.3947 6.13596C24.576 6.60663 24.7947 7.31196 24.8533 8.61196C24.9173 10.0186 24.9307 10.4386 24.9307 14C24.9307 17.56 24.9173 17.9813 24.8533 19.3866C24.7933 20.688 24.576 21.3933 24.3947 21.864C24.1809 22.4431 23.8401 22.9671 23.3973 23.3973C22.9307 23.864 22.4853 24.152 21.864 24.3946C21.3933 24.576 20.688 24.7946 19.388 24.8533C17.9827 24.9173 17.5613 24.9306 14 24.9306C10.44 24.9306 10.0173 24.9173 8.61332 24.8533C7.31199 24.7933 6.60666 24.576 6.13599 24.3946C5.55677 24.1809 5.03281 23.8401 4.60266 23.3973C4.1598 22.9671 3.819 22.4432 3.60532 21.864C3.42266 21.3933 3.20532 20.688 3.14666 19.388C3.08266 17.9813 3.06932 17.5613 3.06932 14C3.06932 10.44 3.08266 10.0186 3.14666 8.61329C3.20666 7.31196 3.42266 6.60663 3.60532 6.13596C3.84799 5.51463 4.13732 5.06929 4.60266 4.60263C5.06932 4.13596 5.51466 3.84796 6.13599 3.60529C6.60666 3.42263 7.31199 3.20529 8.61199 3.14663C10.0187 3.08263 10.4387 3.06929 14 3.06929ZM14 18.444C12.8214 18.444 11.691 17.9758 10.8576 17.1423C10.0242 16.3089 9.55599 15.1786 9.55599 14C9.55599 12.8213 10.0242 11.691 10.8576 10.8576C11.691 10.0242 12.8214 9.55596 14 9.55596C15.1786 9.55596 16.309 10.0242 17.1424 10.8576C17.9758 11.691 18.444 12.8213 18.444 14C18.444 15.1786 17.9758 16.3089 17.1424 17.1423C16.309 17.9758 15.1786 18.444 14 18.444ZM14 7.15329C13.1009 7.15329 12.2106 7.33039 11.3799 7.67446C10.5492 8.01854 9.79444 8.52286 9.15866 9.15864C8.52289 9.79441 8.01857 10.5492 7.67449 11.3799C7.33042 12.2105 7.15332 13.1008 7.15332 14C7.15332 14.8991 7.33042 15.7894 7.67449 16.6201C8.01857 17.4507 8.52289 18.2055 9.15866 18.8413C9.79444 19.4771 10.5492 19.9814 11.3799 20.3255C12.2106 20.6695 13.1009 20.8466 14 20.8466C15.8158 20.8466 17.5573 20.1253 18.8413 18.8413C20.1253 17.5573 20.8467 15.8158 20.8467 14C20.8467 12.1841 20.1253 10.4426 18.8413 9.15864C17.5573 7.87464 15.8158 7.15329 14 7.15329ZM22.7173 6.88263C22.7173 7.09274 22.6759 7.3008 22.5955 7.49492C22.5151 7.68904 22.3973 7.86542 22.2487 8.014C22.1001 8.16257 21.9237 8.28043 21.7296 8.36083C21.5355 8.44124 21.3274 8.48263 21.1173 8.48263C20.9072 8.48263 20.6992 8.44124 20.505 8.36083C20.3109 8.28043 20.1345 8.16257 19.986 8.014C19.8374 7.86542 19.7195 7.68904 19.6391 7.49492C19.5587 7.3008 19.5173 7.09274 19.5173 6.88263C19.5173 6.45828 19.6859 6.05131 19.986 5.75126C20.286 5.4512 20.693 5.28263 21.1173 5.28263C21.5417 5.28263 21.9486 5.4512 22.2487 5.75126C22.5488 6.05131 22.7173 6.45828 22.7173 6.88263Z" fill="black"/>
</svg>
