<svg width="33" height="33" viewBox="0 0 33 33" fill="none" xmlns="http://www.w3.org/2000/svg">
<path d="M26.3548 4.95063C26.0338 4.97399 25.7187 5.0493 25.4218 5.17363H25.4178C25.1328 5.28663 23.7778 5.85663 21.7178 6.72063L14.3358 9.82963C9.03885 12.0596 3.83185 14.2556 3.83185 14.2556L3.89385 14.2316C3.89385 14.2316 3.53485 14.3496 3.15985 14.6066C2.92818 14.7541 2.72882 14.9469 2.57385 15.1736C2.38985 15.4436 2.24185 15.8566 2.29685 16.2836C2.38685 17.0056 2.85485 17.4386 3.19085 17.6776C3.53085 17.9196 3.85485 18.0326 3.85485 18.0326H3.86285L8.74585 19.6776C8.96485 20.3806 10.2338 24.5526 10.5388 25.5136C10.7188 26.0876 10.8938 26.4466 11.1128 26.7206C11.2188 26.8606 11.3428 26.9776 11.4918 27.0716C11.5693 27.1167 11.6519 27.1523 11.7378 27.1776L11.6878 27.1656C11.7028 27.1696 11.7148 27.1816 11.7258 27.1856C11.7658 27.1966 11.7928 27.2006 11.8438 27.2086C12.6168 27.4426 13.2378 26.9626 13.2378 26.9626L13.2728 26.9346L16.1558 24.3096L20.9878 28.0166L21.0978 28.0636C22.1048 28.5056 23.1248 28.2596 23.6638 27.8256C24.2068 27.3886 24.4178 26.8296 24.4178 26.8296L24.4528 26.7396L28.1868 7.61063C28.2928 7.13863 28.3198 6.69663 28.2028 6.26763C28.0822 5.83346 27.8036 5.46004 27.4218 5.22063C27.1013 5.02575 26.7295 4.93168 26.3548 4.95063ZM26.2538 7.00063C26.2498 7.06363 26.2618 7.05663 26.2338 7.17763V7.18863L22.5348 26.1186C22.5188 26.1456 22.4918 26.2046 22.4178 26.2636C22.3398 26.3256 22.2778 26.3646 21.9528 26.2356L16.0428 21.7046L12.4728 24.9586L13.2228 20.1686L22.8788 11.1686C23.2768 10.7986 23.1438 10.7206 23.1438 10.7206C23.1718 10.2666 22.5428 10.5876 22.5428 10.5876L10.3668 18.1306L10.3628 18.1106L4.52685 16.1456V16.1416L4.51185 16.1386C4.52208 16.1352 4.5321 16.1312 4.54185 16.1266L4.57385 16.1106L4.60485 16.0996C4.60485 16.0996 9.81585 13.9036 15.1128 11.6736C17.7648 10.5566 20.4368 9.43163 22.4918 8.56363C24.5468 7.70063 26.0658 7.06763 26.1518 7.03363C26.2338 7.00163 26.1948 7.00163 26.2538 7.00163V7.00063Z" fill="black"/>
</svg>
