<svg width="30" height="30" viewBox="0 0 30 30" fill="none" xmlns="http://www.w3.org/2000/svg">
<path d="M19.992 17.0399C19.6023 16.6183 19.1647 16.2438 18.688 15.9239C20.6103 14.4379 21.9575 12.331 22.5 9.96258C22.5407 9.7912 22.5471 9.61343 22.5187 9.43956C22.4904 9.26569 22.4279 9.09917 22.3348 8.94961C22.2417 8.80005 22.1199 8.67042 21.9764 8.56821C21.8329 8.466 21.6706 8.39323 21.4988 8.35412C21.327 8.31501 21.1492 8.31033 20.9756 8.34034C20.802 8.37036 20.6361 8.43447 20.4875 8.52899C20.3388 8.6235 20.2103 8.74654 20.1095 8.89099C20.0087 9.03545 19.9374 9.19845 19.9 9.37058C19.6476 10.4787 19.1566 11.5183 18.4612 12.4171C17.7657 13.3159 16.8826 14.0522 15.8733 14.5746V9.66925C15.8649 9.57131 15.8452 9.47467 15.8146 9.38125C15.8056 9.30406 15.79 9.22778 15.768 9.15325C15.7111 9.03146 15.6361 8.91906 15.5453 8.81992C15.5213 8.79325 15.5093 8.75592 15.484 8.72925C15.3863 8.63911 15.2758 8.56406 15.156 8.50659C15.1213 8.48792 15.096 8.45725 15.06 8.44258C14.958 8.40845 14.8524 8.38652 14.7453 8.37725C14.679 8.35794 14.6112 8.34412 14.5426 8.33592L13.6706 8.33325H13.6666C13.3543 8.33104 13.0511 8.43913 12.8106 8.63849C12.5701 8.83784 12.4077 9.11567 12.3519 9.42304C12.2961 9.73041 12.3506 10.0476 12.5058 10.3187C12.6609 10.5899 12.9067 10.7976 13.2 10.9053V17.4253C11.0871 15.2321 9.68786 12.4504 9.18665 9.44658C9.12759 9.09791 8.93245 8.78698 8.64414 8.58219C8.35583 8.3774 7.99798 8.29553 7.64931 8.35458C7.30064 8.41364 6.98971 8.60878 6.78492 8.89709C6.58013 9.1854 6.49826 9.54325 6.55731 9.89192C7.33642 14.5356 9.92581 18.6805 13.7573 21.4172C13.8121 21.4498 13.8691 21.4783 13.928 21.5026C13.9744 21.5296 14.0225 21.5537 14.072 21.5746C14.2205 21.6341 14.3787 21.6661 14.5386 21.6693C14.7349 21.6668 14.9281 21.6203 15.104 21.5333C15.1173 21.5266 15.132 21.5306 15.1453 21.5239C15.2632 21.4622 15.371 21.3831 15.4653 21.2892C15.4853 21.2706 15.4973 21.2493 15.516 21.2293C15.602 21.1348 15.6739 21.0284 15.7293 20.9132C15.7477 20.8754 15.7641 20.8367 15.7786 20.7973C15.8372 20.6503 15.8688 20.4941 15.872 20.3359V17.5013C16.6987 17.7436 17.4437 18.2069 18.0266 18.8412L20.2226 21.2372C20.4617 21.4979 20.7945 21.6529 21.1478 21.6681C21.5011 21.6834 21.846 21.5576 22.1066 21.3186C22.3673 21.0795 22.5222 20.7467 22.5375 20.3934C22.5528 20.0401 22.427 19.6952 22.188 19.4346L19.992 17.0399ZM19.0973 0.333252H10.916C2.70665 0.333252 0.333313 2.70392 0.333313 10.9026V19.0839C0.333313 27.2932 2.70398 29.6666 10.9026 29.6666H19.084C27.2933 29.6666 29.6666 27.2959 29.6666 19.0972V10.9159C29.6666 2.70659 27.296 0.333252 19.0973 0.333252ZM27 19.0972C27 25.8173 25.816 26.9999 19.0826 26.9999H10.904C4.18265 26.9999 2.99998 25.8159 2.99998 19.0826V10.9039C2.99998 4.18259 4.18398 2.99992 10.9173 2.99992H19.0973C25.8173 2.99992 27 4.18392 27 10.9173V19.0972Z" fill="black"/>
</svg>
